<svg width="543" height="515" viewBox="0 0 543 515" fill="none" xmlns="http://www.w3.org/2000/svg">
<g opacity="0.6">
<path fill-rule="evenodd" clip-rule="evenodd" d="M238.955 685.578C191.864 675.37 158.431 637.603 123.995 603.89C88.0257 568.675 42.0837 536.123 35.3338 486.228C28.5742 436.26 54.5664 385.308 89.5085 348.961C120.204 317.031 169.204 318.483 210.909 303.593C247.049 290.69 279.007 270.055 317.302 267.632C365.839 264.56 424.615 252.738 458.173 287.947C491.72 323.143 464.537 381.533 471.712 429.634C479.105 479.203 519.406 526.884 500.749 573.4C481.855 620.508 426.239 639.315 379.598 659.3C334.658 678.557 286.731 695.935 238.955 685.578Z" fill="#98A2FF"/>
<path fill-rule="evenodd" clip-rule="evenodd" d="M431.267 491.941C379.25 495.583 340.559 440.094 312.448 396.161C287.618 357.355 291.449 309.728 285.445 264.042C279.425 218.239 252.561 168.065 277.347 129.081C302.127 90.105 358.044 89.9872 402.944 79.2333C438.48 70.722 474.442 63.916 509.721 73.4248C543.133 82.4303 566.827 108.323 593.351 130.554C624.089 156.317 668.092 174.094 676.606 213.299C685.206 252.902 660.549 292.712 635.48 324.553C613.15 352.915 573.398 356.964 545.483 379.845C503.194 414.508 485.799 488.123 431.267 491.941Z" fill="#A25FE6" fill-opacity="0.7"/>
<path fill-rule="evenodd" clip-rule="evenodd" d="M517.665 654.214C477.723 648.337 454.587 606.986 430.07 574.9C408.053 546.086 392.122 514.631 384.001 479.282C375.069 440.403 364.916 398.941 381.288 362.561C398.198 324.986 434.212 299.313 472.181 283.338C508.969 267.86 550.272 264.52 588.696 275.297C625.031 285.487 651.719 313.393 677.528 340.932C703.23 368.357 734.315 395.999 736.963 433.502C739.57 470.425 711.485 500.769 690.991 531.591C672.402 559.549 651.376 584.048 623.972 603.435C591.106 626.687 557.485 660.075 517.665 654.214Z" fill="#FF8989"/>
</g>
</svg>
