<svg width="732" height="983" viewBox="0 0 732 983" fill="none" xmlns="http://www.w3.org/2000/svg">
<g opacity="0.7">
<path fill-rule="evenodd" clip-rule="evenodd" d="M114.359 351.793C192.964 331.285 268.139 405.147 323.794 464.35C372.954 516.645 380.76 590.673 403.068 658.906C425.434 727.316 480.971 796.433 454.208 863.243C427.451 930.038 341.861 946.27 276.194 975.625C224.222 998.858 171.11 1019.6 114.359 1015.17C60.6115 1010.97 16.8969 978.124 -30.0997 951.696C-84.5624 921.069 -157.045 906.479 -181.335 848.889C-205.873 790.715 -179.543 722.679 -150.297 666.726C-124.245 616.886 -64.5363 599.276 -28.3592 556.226C26.4468 491.008 31.9521 373.292 114.359 351.793Z" fill="#A25FE6" fill-opacity="0.8"/>
<path fill-rule="evenodd" clip-rule="evenodd" d="M353.255 0.0818585C428.294 2.19644 490.33 50.4295 552.737 92.1684C617.924 135.767 697.617 172.425 722.275 246.89C746.969 321.463 721.793 406.945 678.721 472.632C640.884 530.336 565.436 542.177 505.849 576.949C454.212 607.081 411.2 647.852 353.255 662.555C279.814 681.19 193.207 716.165 131.715 671.884C70.2419 627.618 95.1054 530.407 70.3119 458.81C44.7625 385.03 -30.6348 323.586 -15.4189 247.003C-0.00944901 169.445 79.7553 124.682 145.438 80.6908C208.725 38.304 277.124 -2.06348 353.255 0.0818585Z" fill="#98A2FF" fill-opacity="0.7"/>
<path fill-rule="evenodd" clip-rule="evenodd" d="M-66.0498 128.397C-3.2009 125.932 44.0953 182.609 90.8467 224.704C132.832 262.507 166.255 306.098 188.838 357.896C213.675 414.866 241.123 475.442 226.496 535.848C211.388 598.239 163.611 647.888 110.056 683.249C58.1669 717.51 -4.12003 734.48 -66.0498 729.008C-124.613 723.833 -173.49 688.763 -220.915 654.001C-268.144 619.385 -323.678 585.98 -338.498 529.314C-353.089 473.524 -318.793 418.997 -296.259 365.918C-275.818 317.771 -250.655 274.222 -214.257 236.669C-170.606 191.63 -128.708 130.854 -66.0498 128.397Z" fill="#FF8989"/>
</g>
</svg>
